<?xml version="1.0" encoding="UTF-8"?>
<svg id="Layer_1" xmlns="http://www.w3.org/2000/svg" version="1.1" viewBox="0 0 280 80">
  <!-- Generator: Adobe Illustrator 29.6.1, SVG Export Plug-In . SVG Version: 2.1.1 Build 9)  -->
  <defs>
    <style>
      .st0 {
        fill: #072d48;
      }

      .st1 {
        fill: #f9b443;
      }
    </style>
  </defs>
  <path class="st1" d="M37.7,72.7c-18.3,0-33.2-14.8-33.2-33.2S19.4,6.4,37.7,6.4s33.2,14.8,33.2,33.2-14.8,33.2-33.2,33.2Z"/>
  <path class="st0" d="M64.2,29.6c-.4-6.7-4.8-7.8-6.8-7.8s-2.9.7-2.9.7c-5.6-11.3-16.5-10.6-16.8-10.6-.3,0-11.2-.7-16.8,10.6,0,0-1-.7-2.9-.7s-6.4,1.1-6.8,7.8c-.4,6.7,7.1,8.9,9,7.9,0,0,.2,1.8,1.7,3.6,0,0-4.9-.4-4.9,3.8v17.4s-.3,5,7.3,5h26.7c7.6,0,7.3-5,7.3-5v-17.4c0-4.2-4.9-3.8-4.9-3.8,1.5-1.8,1.7-3.6,1.7-3.6,1.9.9,9.4-1.3,9-7.9Z"/>
  <path class="st1" d="M51.9,28.2c0-5.1-4.3-7.7-7.6-7.7s-5.7,2.3-6.1,2.7c-.4.4-.5.3-.5.3h0s0,.1-.5-.3-2.8-2.7-6.1-2.7-7.6,2.6-7.6,7.7,3.8,6.2,3.8,6.2c0,0-1.7,2.2-1.7,5.2s3.5,8.6,12.1,8.6h0c8.7,0,12.1-5.7,12.1-8.6s-1.7-5.2-1.7-5.2c0,0,3.8-1,3.8-6.2Z"/>
  <path class="st0" d="M37.7,2.8C17.4,2.8,1,19.3,1,39.5s16.4,36.7,36.7,36.7,36.7-16.4,36.7-36.7S57.9,2.8,37.7,2.8ZM37.7,72.7c-18.3,0-33.2-14.8-33.2-33.2S19.4,6.4,37.7,6.4s33.2,14.8,33.2,33.2-14.8,33.2-33.2,33.2Z"/>
  <ellipse class="st0" cx="31.1" cy="29.5" rx="2.3" ry="2.7"/>
  <ellipse class="st0" cx="44.5" cy="29.5" rx="2.3" ry="2.7"/>
  <path class="st0" d="M35.7,32.7s1.5.1,1.5,1.7-.8.2-1.8,0-.9-.6-.9-.8.4-1,1.2-1Z"/>
  <path class="st0" d="M39.8,32.7s-1.5.1-1.5,1.7.8.2,1.8,0,.9-.6.9-.8-.4-1-1.2-1Z"/>
  <path class="st0" d="M46.2,37.6s-.5,0-1.1.8c-.5.8-1.9,1.8-4.1,2.3s-3.4.4-3.4.4c0,0-1.2.1-3.4-.4s-3.5-1.5-4.1-2.3c-.5-.8-1.1-.8-1.1-.8,0,0-.8,0-.8,1s1.8,2.6,4.4,3.5,5,.8,5,.8c0,0,2.4.1,5-.8s4.4-2.5,4.4-3.5-.8-1-.8-1Z"/>
  <path class="st1" d="M19.7,26.1s-1.1,3.1-.3,7.9c0,0-4.9.3-5-4.5s4.5-4.2,5.2-3.3Z"/>
  <path class="st1" d="M55.7,26.1s1.1,3.1.3,7.9c0,0,4.9.3,5-4.5s-4.5-4.2-5.2-3.3Z"/>
  <polygon class="st1" points="20 46.3 29.7 54 20 63 20 46.3"/>
  <polygon class="st1" points="55.4 46.3 45.7 54 55.4 63 55.4 46.3"/>
  <path class="st1" d="M49.7,44.5s-3.4,5.6-12.1,5.6c-8.7,0-12.1-5.6-12.1-5.6h-3.6s13.1,10.5,14.3,11.5c1,.8,1.4.8,1.5.8,0,0,.5,0,1.5-.8,1.1-1,14.3-11.5,14.3-11.5h-3.6Z"/>
  <path class="st1" d="M43.9,55.5s-2.1,1.7-3.5,2.9c-1.3,1.1-2.5,1-2.6,1h0s0,0,0,0c0,0,0,0,0,0h0c-.1,0-1.4.1-2.6-1-1.3-1.2-3.5-2.9-3.5-2.9l-9.5,8.8h31.2l-9.5-8.8Z"/>
  <g>
    <path class="st0" d="M82.7,29.4h2.7l.4,14.4v9.2h-3.1v-23.6ZM83.7,29.4h3l7.7,19.2,7.7-19.2h3l-9.6,23.6h-2.4l-9.6-23.6ZM103.5,29.4h2.7v23.6h-3.1v-9.2l.4-14.4Z"/>
    <path class="st0" d="M110.5,44.4v-.4c0-1.3.2-2.4.6-3.5s.9-2,1.6-2.8c.7-.8,1.5-1.4,2.5-1.9s2.1-.7,3.3-.7,2.3.2,3.3.7c1,.4,1.8,1.1,2.5,1.9.7.8,1.2,1.8,1.6,2.8.4,1.1.6,2.3.6,3.5v.4c0,1.3-.2,2.4-.6,3.5-.4,1.1-.9,2-1.6,2.8-.7.8-1.5,1.4-2.5,1.9-1,.4-2.1.7-3.3.7s-2.3-.2-3.3-.7-1.8-1.1-2.5-1.9c-.7-.8-1.2-1.7-1.6-2.8-.4-1.1-.6-2.3-.6-3.5ZM113.5,44v.4c0,.9.1,1.7.3,2.5s.5,1.5.9,2.1c.4.6.9,1.1,1.6,1.4.6.3,1.4.5,2.2.5s1.5-.2,2.2-.5c.6-.3,1.1-.8,1.5-1.4s.7-1.3.9-2.1c.2-.8.3-1.6.3-2.5v-.4c0-.9-.1-1.7-.3-2.5-.2-.8-.5-1.5-.9-2.1s-.9-1.1-1.6-1.4-1.3-.5-2.2-.5-1.5.2-2.2.5-1.1.8-1.6,1.4c-.4.6-.7,1.3-.9,2.1-.2.8-.3,1.6-.3,2.5Z"/>
    <path class="st0" d="M133.2,39.2v13.8h-3v-17.5h2.8l.2,3.7ZM132.5,43.5h-1.2c0-1.2.2-2.4.5-3.4.3-1,.8-1.9,1.5-2.7.6-.8,1.4-1.3,2.2-1.8s1.8-.6,2.9-.6,1.6.1,2.3.3c.7.2,1.3.6,1.8,1.1.5.5.9,1.2,1.1,2,.3.8.4,1.8.4,2.9v11.5h-3v-11.5c0-.9-.1-1.7-.4-2.2-.3-.6-.7-1-1.2-1.2s-1.2-.4-1.9-.4-1.4.2-2,.5c-.6.3-1.1.7-1.6,1.3-.4.6-.8,1.2-1,1.9-.2.7-.4,1.5-.4,2.2Z"/>
    <path class="st0" d="M151.5,28.1v24.9h-3v-24.9h3ZM162.3,35.4l-7.7,8.2-4.3,4.4-.2-3.2,3.1-3.7,5.4-5.8h3.7ZM159.5,53l-6.3-8.4,1.6-2.7,8.2,11h-3.5Z"/>
    <path class="st0" d="M172.3,53.3c-1.2,0-2.3-.2-3.3-.6-1-.4-1.8-1-2.5-1.8-.7-.8-1.3-1.7-1.6-2.7s-.6-2.2-.6-3.4v-.7c0-1.4.2-2.7.6-3.8.4-1.1,1-2.1,1.7-2.8.7-.8,1.5-1.4,2.5-1.8.9-.4,1.9-.6,2.9-.6s2.3.2,3.3.6c.9.4,1.7,1,2.2,1.8.6.8,1,1.7,1.3,2.7.3,1,.4,2.2.4,3.4v1.3h-13.1v-2.4h10.1v-.2c0-.8-.2-1.5-.5-2.3-.3-.7-.7-1.3-1.3-1.8s-1.4-.7-2.4-.7-1.3.1-1.9.4c-.6.3-1.1.7-1.5,1.3-.4.6-.7,1.2-1,2.1-.2.8-.3,1.7-.3,2.8v.7c0,.8.1,1.6.3,2.3s.6,1.4,1,1.9c.4.6,1,1,1.6,1.3.6.3,1.4.5,2.2.5s2-.2,2.7-.6c.7-.4,1.4-1,1.9-1.7l1.8,1.4c-.4.6-.9,1.1-1.4,1.6-.6.5-1.3.9-2.1,1.3s-1.9.5-3,.5Z"/>
    <path class="st0" d="M183.8,35.4l4.6,13.6.8,3.2-2.2,1.1-6.5-17.9h3.3ZM187.4,51.2l4.9-15.7h3.2l-7,20.2c-.2.4-.4.9-.6,1.4-.3.5-.6,1-1,1.4-.4.5-.9.8-1.5,1.1-.6.3-1.3.4-2.1.4s-.5,0-.9,0c-.4,0-.6-.1-.8-.2v-2.4c0,0,.2,0,.4,0,.2,0,.3,0,.4,0,.7,0,1.3,0,1.7-.3.5-.2.9-.5,1.2-.9.3-.4.6-1,.9-1.7l1.2-3.4Z"/>
    <path class="st0" d="M208.3,48.3c0-.4,0-.8-.3-1.2-.2-.4-.6-.7-1.2-1-.6-.3-1.4-.6-2.6-.8-1-.2-1.9-.4-2.6-.7-.8-.3-1.4-.6-2-1-.5-.4-1-.9-1.3-1.4-.3-.5-.4-1.2-.4-1.9s.2-1.3.5-2c.3-.6.7-1.2,1.3-1.6s1.3-.8,2.1-1.1c.8-.3,1.7-.4,2.7-.4,1.4,0,2.6.2,3.6.7s1.8,1.2,2.3,2c.5.8.8,1.7.8,2.7h-3c0-.5-.1-1-.4-1.4-.3-.5-.7-.8-1.2-1.1-.5-.3-1.2-.5-2-.5s-1.5.1-2,.4-.9.6-1.1,1c-.2.4-.3.8-.3,1.2s0,.6.2.9.3.5.6.7c.3.2.7.4,1.2.6s1.2.4,2,.6c1.4.3,2.6.7,3.6,1.2.9.5,1.6,1,2.1,1.7.5.7.7,1.5.7,2.4s-.2,1.5-.5,2.1c-.3.6-.8,1.2-1.4,1.6-.6.5-1.3.8-2.1,1.1s-1.8.4-2.8.4c-1.5,0-2.9-.3-3.9-.8-1.1-.6-1.9-1.3-2.4-2.1-.6-.9-.8-1.8-.8-2.8h3c0,.8.3,1.5.7,2,.4.5,1,.8,1.6,1s1.2.3,1.9.3,1.5-.1,2.1-.3c.6-.2,1-.5,1.3-.9.3-.4.4-.8.4-1.3Z"/>
    <path class="st0" d="M215.7,29.4h2.7l.4,14.4v9.2h-3.1v-23.6ZM216.7,29.4h3l7.7,19.2,7.7-19.2h3l-9.6,23.6h-2.4l-9.6-23.6ZM236.5,29.4h2.7v23.6h-3.1v-9.2l.4-14.4Z"/>
    <path class="st0" d="M255.1,42.4v2.1s-3,0-3,0c-.9,0-1.6,0-2.3.2-.7.1-1.2.3-1.7.6-.5.3-.8.6-1,1-.2.4-.4.9-.4,1.4s.1,1.1.4,1.5c.2.5.6.8,1.1,1.1.5.3,1.1.4,1.9.4s1.7-.2,2.4-.6c.7-.4,1.3-.9,1.7-1.4.4-.6.6-1.1.7-1.6l1.3,1.4c0,.5-.3,1-.6,1.5-.3.6-.8,1.1-1.3,1.6-.6.5-1.2.9-2,1.2-.8.3-1.6.5-2.6.5s-2.2-.2-3.1-.7-1.6-1.1-2.1-1.9c-.5-.8-.7-1.7-.7-2.6s.2-1.8.6-2.5.9-1.3,1.6-1.8c.7-.5,1.5-.8,2.5-1.1s2.1-.4,3.3-.4h3.5ZM254.6,50v-9c0-.7-.1-1.3-.4-1.8-.3-.5-.7-.9-1.2-1.2-.6-.3-1.2-.4-2-.4s-1.4.1-2,.4-1,.6-1.3,1-.5.9-.5,1.4h-3c0-.6.2-1.2.5-1.9s.8-1.2,1.4-1.7,1.3-.9,2.2-1.2c.9-.3,1.8-.4,2.9-.4s2.4.2,3.4.6c1,.4,1.7,1.1,2.3,2s.8,2,.8,3.3v8.2c0,.6,0,1.2.2,1.9.1.7.3,1.2.5,1.7v.3h-3.1c-.2-.3-.3-.8-.4-1.4,0-.6-.1-1.1-.1-1.6Z"/>
    <path class="st0" d="M262.3,30.8c0-.5.1-.9.4-1.2.3-.3.7-.5,1.3-.5s1,.2,1.3.5c.3.3.5.7.5,1.2s-.2.9-.5,1.2c-.3.3-.7.5-1.3.5s-1-.2-1.3-.5c-.3-.3-.4-.7-.4-1.2ZM265.6,35.4v17.5h-3v-17.5h3Z"/>
    <path class="st0" d="M273.6,28.1v24.9h-3v-24.9h3Z"/>
  </g>
</svg>