<?xml version="1.0" encoding="UTF-8"?>
<svg id="Layer_1" xmlns="http://www.w3.org/2000/svg" version="1.1" viewBox="0 0 505 85">
  <!-- Generator: Adobe Illustrator 29.5.1, SVG Export Plug-In . SVG Version: 2.1.0 Build 141)  -->
  <defs>
    <style>
      .st0 {
        fill: #fbfced;
      }

      .st1 {
        fill: #fff;
      }

      .st2 {
        fill: #ea8a0a;
      }

      .st3 {
        fill: #25313d;
      }
    </style>
  </defs>
  <g>
    <path class="st1" d="M59.5,19.8c2.2-2.1,4.4-4.2,6.6-6.4.3-.4.3-.7,0-1.2s-1.4-1.4-1.9-1.8c-13.3-11.7-32.1-11.6-45.6-.2s-2.2,1.8-2.3,2.4,0,.5.2.7l10.8,10.3c2.5-2.2,5.2-3.9,8.5-4.8,5.3-1.4,11.3-.6,16,2.2s2.3,1.7,3.5,2.6c1.4-1.2,2.7-2.6,4.1-3.9ZM58.6,30.8c-3.9-8.4-13.4-12.6-22.3-10.2s-9.8,5.2-12.1,10.2c5.6-1.4,11.3-3,17-3.9,5.9.9,11.6,2.3,17.3,3.9ZM61.3,37v-3.8c-.5-.3-1.1-.4-1.7-.6-4.9-1.4-10.4-2.8-15.5-3.7s-2-.4-2.7-.4-2.8.5-3.8.7c-5.4,1.1-10.8,2.5-16.1,4v3.7c-7-1-9.8,6.7-5.7,11.8s3.2,2.6,5.3,3.2c-.5,2.6-1.2,5.1-2,7.6s-.7,1.8-.6,2.1c3,4.1,7,7.7,11.3,10.5s.6.4.9.5v-2.5l3.8,2.8c1.8,1.1,3.7,2.3,5.7,3.2s1,.5,1.3.5c.4,0,2.2-.9,2.6-1.2,1.6-.8,3.2-1.8,4.7-2.8l3.3-2.5v2.5c.3,0,.6-.3.9-.4,4.4-2.7,8.4-6.4,11.5-10.6v-.2c-1.2-3.1-2-6.3-2.7-9.5,4.7-.9,8-5.2,7-10s-4.1-5.7-7.5-4.8ZM10.2,52.2c-.1,0-.3.1-.4.2l-8,8c-.3.4-.5.8,0,1.2,2,2,4,4,6,5.9s2,2.1,2.3,2.3c.8.3,1.6-.9,2-1.5l-7.2-7.2,7.2-7.2c0-.1,0-.2,0-.3s-1.1-1.2-1.2-1.2c-.2-.2-.4-.2-.6-.2ZM77.1,56.5c-1.5-1.4-3-2.9-4.4-4.3-.7-.2-1.5,1-2,1.5l7.3,7.3-7.2,7.2c0,0,0,.1,0,.2s.7.8.8.9c.4.4.8.8,1.3.5s1.5-1.5,1.9-1.9c2.2-2.1,4.4-4.2,6.5-6.5.2-.7-.8-1.3-1.2-1.8-1-1-2-2.1-3-3.1Z"/>
    <path class="st3" d="M61.3,37c3.4-1,6.8,1.5,7.5,4.8,1,4.8-2.3,9.1-7,10,.7,3.2,1.5,6.4,2.7,9.5v.2c-3.1,4.1-7.1,7.8-11.5,10.6s-.6.4-.9.4v-2.5l-3.3,2.5c-1.5,1-3.1,2-4.7,2.8s-2.2,1.2-2.6,1.2-1-.4-1.3-.5c-2-.9-3.9-2.1-5.7-3.2l-3.8-2.8v2.5c-.3-.1-.7-.3-.9-.5-4.3-2.7-8.3-6.4-11.3-10.5-.1-.3.5-1.7.6-2.1.8-2.5,1.5-5,2-7.6-2.1-.5-3.9-1.4-5.3-3.2-4.1-5.1-1.3-12.7,5.7-11.8v-3.7c5.3-1.5,10.7-2.9,16.1-4s2.8-.7,3.8-.7,2,.3,2.7.4c5,.9,10.6,2.3,15.5,3.7s1.2.3,1.7.6v3.8ZM57.3,39.6h-31.8c0,.7,0,1.3,0,2,0,1.2,0,3.3.4,4.3,1,2.6,4.1,5.2,6.8,5.7-1.8,3.5-2.6,7.4-1.8,11.3.9-.4,1.7-.9,2.6-1.2,4.3-1.6,9.4-1.7,13.9-.6s3,1,4.4,1.9c.7-3.3.3-6.7-1-9.8s-.6-1-.8-1.6c3.2-.7,6.3-3.4,7.1-6.6l.2-5.4ZM21.4,48.8l.4-7.6c0-.3-.8-.4-1-.5-1.4-.3-2.7,0-3.2,1.5-1,2.7,1.2,6,3.9,6.6ZM63.8,47.4c2.5-2.5,2.4-8-2.1-6.6s-.8.3-.7.6l.4,7.5c.9-.3,1.8-.8,2.4-1.5ZM58.6,49.9l-1.7,1.5-2.3,1.6c1.3,4.7,1.5,9.7.2,14.3,0,0,.8-.5.9-.6,2.1-1.6,4-3.6,5.5-5.7-1.1-3.6-2.3-7.3-2.7-11.1ZM28,67.4c-1.2-4.6-1-9.7.3-14.3-.7-.5-1.4-.9-2.1-1.4s-1.2-1.2-1.7-1.6,0-.1-.2,0c-.5,3.8-1.5,7.5-2.8,11,1.6,2.1,3.3,4,5.4,5.6l1.1.8ZM51.1,64.7c-5.9-2.9-13.4-2.9-19.4,0,2.4,4.5,7.8,6.5,12.6,5.2s5.4-2.6,6.8-5.2Z"/>
    <path class="st3" d="M59.5,19.8c-1.4,1.3-2.7,2.6-4.1,3.9-1.1-.9-2.2-1.8-3.5-2.6-4.7-2.8-10.7-3.6-16-2.2s-6,2.6-8.5,4.8l-10.8-10.3c-.1-.2-.2-.4-.2-.7,0-.6,1.8-2,2.3-2.4,13.5-11.4,32.3-11.5,45.6.2.4.4,1.6,1.3,1.9,1.8s.3.8,0,1.2c-2.2,2.1-4.4,4.3-6.6,6.4ZM40.9,15.2v-5.5c.4,0,.9-.1,1.2.1v5.4c1.9,0,3.8.4,5.7.9l2.3-3.4-1.1,3.8c2.4.7,4.6,2,6.5,3.5l7.6-7.2c-7.6-7.1-18.4-10-28.6-7.7s-10.6,3.9-14.7,7.7l7.6,7.2c1.9-1.6,4.1-2.8,6.4-3.5l-1-3.7c.2,0,.2.1.3.2.7,1,1.4,2.1,2,3.1,1.9-.6,3.8-.9,5.8-.9Z"/>
    <path class="st3" d="M58.6,30.8c-5.7-1.6-11.5-3-17.3-3.9-5.8.9-11.4,2.4-17,3.9,2.3-4.9,6.8-8.7,12.1-10.2,8.9-2.4,18.4,1.8,22.3,10.2Z"/>
    <path class="st3" d="M10.2,52.2c.3,0,.4,0,.6.2s1.2,1.2,1.2,1.2,0,.2,0,.3l-7.2,7.2,7.2,7.2c-.4.6-1.2,1.7-2,1.5s-1.9-1.9-2.3-2.3c-2-1.9-4-3.9-6-5.9-.4-.4-.2-.8,0-1.2l8-8c.1,0,.2-.2.4-.2Z"/>
    <path class="st3" d="M77.1,56.5c1,1,2,2.1,3,3.1s1.4,1,1.2,1.8c-2.1,2.3-4.3,4.4-6.5,6.5s-1.5,1.7-1.9,1.9c-.6.3-1-.1-1.3-.5s-.7-.8-.8-.9c0,0,0-.1,0-.2l7.2-7.2-7.3-7.3c.5-.4,1.3-1.7,2-1.5,1.5,1.4,3,2.8,4.4,4.3Z"/>
    <path class="st0" d="M57.3,39.6l-.2,5.4c-.8,3.3-3.8,5.9-7.1,6.6.2.5.5,1,.8,1.6,1.4,3.1,1.7,6.5,1,9.8-1.3-.9-2.8-1.5-4.4-1.9-4.4-1.2-9.6-1-13.9.6s-1.8.8-2.6,1.2c-.8-3.9,0-7.8,1.8-11.3-2.8-.5-5.9-3.1-6.8-5.7s-.4-3.2-.4-4.3,0-1.3,0-2h31.8ZM54.7,41.6c-4.4.2-8.7,1.6-12.9,2.7-2.5-.2-4.9-1.2-7.4-1.8s-4.1-.7-6.2-.9c-.3,2,1.4,2.6,3.1,2.6.1.6.2,1.2.6,1.7,1.3,1.7,4.6,1.4,5.2-.8,1.2.5,2.2,1.4,3.5,1.8,2.2.5,3.5-1,5.3-1.8,1.2,2.9,5.9,2.4,5.8-1,1.7.2,3.4-.6,3.1-2.6ZM40.5,53.9c0-.5.4-1.6.1-2.1s-1.7-1.8-1.9-1.9c-1.3-.7-2.2,1.4-1.7,2.4s.9.3,1.4.3,1,.3,1.3.6l.6.7ZM42.4,53.9c.5-.5,1.1-1.2,1.9-1.2s.9.5,1.4-.2c.7-1.1-.2-3.3-1.6-2.5s-1.9,1.7-1.9,2c-.1.6.2,1.4.3,1.9Z"/>
    <path class="st0" d="M51.1,64.7c-1.3,2.6-4,4.5-6.8,5.2-4.8,1.3-10.3-.7-12.6-5.2,6-2.9,13.4-2.9,19.4,0Z"/>
    <path class="st2" d="M58.6,49.9c.3,3.8,1.6,7.5,2.7,11.1-1.5,2.1-3.5,4.1-5.5,5.7s-.9.7-.9.6c1.3-4.7,1.1-9.7-.2-14.3l2.3-1.6,1.7-1.5Z"/>
    <path class="st2" d="M28,67.4l-1.1-.8c-2.1-1.6-3.8-3.5-5.4-5.6,1.3-3.6,2.3-7.3,2.8-11,.1,0,.2,0,.2,0,.5.3,1.1,1.1,1.7,1.6s1.4.9,2.1,1.4c-1.2,4.6-1.5,9.6-.3,14.3Z"/>
    <path class="st0" d="M63.8,47.4c-.7.6-1.6,1.1-2.4,1.5l-.4-7.5c0-.3.5-.5.7-.6,4.5-1.4,4.6,4.1,2.1,6.6Z"/>
    <path class="st0" d="M21.4,48.8c-2.7-.6-4.8-3.9-3.9-6.6s1.8-1.8,3.2-1.5.9.2,1,.5l-.4,7.6Z"/>
    <path class="st2" d="M40.9,15.2c-2,0-3.9.3-5.8.9-.6-1-1.3-2.1-2-3.1s0-.3-.3-.2l1,3.7c-2.3.8-4.6,1.9-6.4,3.5l-7.6-7.2c4.1-3.8,9.2-6.5,14.7-7.7,10.2-2.2,21,.6,28.6,7.7l-7.6,7.2c-1.9-1.6-4.1-2.8-6.5-3.5l1.1-3.8-2.3,3.4c-1.9-.5-3.8-.9-5.7-.9v-5.4c-.3-.3-.8,0-1.2-.1v5.5Z"/>
    <path class="st3" d="M54.7,41.6c.3,1.9-1.5,2.7-3.1,2.6.1,3.3-4.6,3.9-5.8,1-1.8.8-3.1,2.3-5.3,1.8s-2.3-1.3-3.5-1.8c-.6,2.2-3.8,2.6-5.2.8s-.4-1.1-.6-1.7c-1.6,0-3.4-.7-3.1-2.6,2.1.2,4.2.5,6.2.9s4.9,1.5,7.4,1.8c4.3-1.1,8.5-2.5,12.9-2.7Z"/>
    <path class="st3" d="M42.4,53.9c-.1-.6-.4-1.4-.3-1.9s1.6-1.8,1.9-2c1.4-.8,2.4,1.4,1.6,2.5s-.9.2-1.4.2c-.8,0-1.4.7-1.9,1.2Z"/>
    <path class="st3" d="M40.5,53.9l-.6-.7c-.3-.3-.9-.6-1.3-.6s-.9.6-1.4-.3.4-3.1,1.7-2.4,1.8,1.7,1.9,1.9c.2.5-.1,1.6-.1,2.1Z"/>
  </g>
  <g>
    <path class="st3" d="M132.5,70.2v-32.7l-14.6,25.4h-2.5l-14.6-25.4v32.7h-4V29.9h4.1l15.7,27.5,15.8-27.5h4v40.2h-4Z"/>
    <path class="st3" d="M158,70.7c-2.2,0-4.1-.4-5.9-1.2-1.8-.8-3.3-1.9-4.6-3.3-1.3-1.4-2.3-3-3-4.8-.7-1.8-1.1-3.7-1.1-5.8s.4-4.1,1.1-5.9c.7-1.8,1.7-3.4,3.1-4.8,1.3-1.4,2.9-2.5,4.7-3.3,1.8-.8,3.7-1.2,5.9-1.2s4.1.4,5.8,1.2c1.8.8,3.3,1.9,4.6,3.3,1.3,1.4,2.3,3,3.1,4.8.7,1.8,1.1,3.8,1.1,5.9s-.4,4-1.1,5.8c-.7,1.8-1.7,3.4-3,4.8-1.3,1.4-2.9,2.5-4.6,3.3-1.8.8-3.7,1.2-5.9,1.2ZM147.2,55.6c0,2.2.5,4.2,1.4,5.9s2.3,3.2,3.9,4.2c1.6,1,3.4,1.5,5.4,1.5s3.8-.5,5.4-1.6c1.6-1,2.9-2.5,3.9-4.3,1-1.8,1.5-3.8,1.5-6s-.5-4.1-1.5-5.9c-1-1.8-2.3-3.2-3.9-4.3-1.6-1-3.4-1.6-5.4-1.6s-3.8.5-5.4,1.6c-1.6,1.1-2.9,2.5-3.9,4.3s-1.4,3.8-1.4,6Z"/>
    <path class="st3" d="M203.8,70.2h-3.9v-16.4c0-3.5-.5-6-1.5-7.6-1-1.6-2.6-2.4-4.8-2.4s-3,.4-4.5,1.1c-1.5.7-2.8,1.7-3.9,3-1.1,1.3-1.9,2.7-2.4,4.3v18h-3.9v-29.4h3.5v6.7c.8-1.4,1.8-2.7,3.1-3.7,1.3-1.1,2.7-1.9,4.4-2.5,1.6-.6,3.3-.9,5-.9s3,.3,4.1.9c1.1.6,2,1.5,2.7,2.6.7,1.1,1.2,2.4,1.5,4,.3,1.6.5,3.3.5,5.2v17.2Z"/>
    <path class="st3" d="M233.1,70.2l-10.9-15.1-6.3,5.9v9.2h-3.9V28.8h3.9v28l16.7-16.1h4.2l-12.1,12,12.5,17.4h-4.2Z"/>
    <path class="st3" d="M253.3,70.7c-2.1,0-4.1-.4-5.9-1.2s-3.4-1.9-4.7-3.3c-1.3-1.4-2.4-3-3.1-4.9-.7-1.8-1.1-3.8-1.1-5.9s.6-5.2,1.9-7.5c1.3-2.3,3-4.1,5.2-5.5,2.2-1.4,4.8-2.1,7.6-2.1s5.4.7,7.6,2.1c2.2,1.4,3.9,3.2,5.1,5.5s1.9,4.8,1.9,7.5v.9c0,.3,0,.5,0,.6h-25.3c.2,2.1.8,4,1.8,5.6,1,1.6,2.3,2.9,3.9,3.9,1.6,1,3.4,1.4,5.2,1.4s3.7-.5,5.5-1.5c1.7-1,2.9-2.3,3.6-3.9l3.3.9c-.6,1.4-1.5,2.7-2.8,3.8s-2.7,2-4.4,2.6c-1.7.6-3.5.9-5.4.9ZM242.4,54.1h21.8c-.2-2.1-.7-4-1.7-5.6-1-1.6-2.3-2.9-3.9-3.8-1.6-.9-3.4-1.4-5.3-1.4s-3.7.5-5.3,1.4-2.9,2.2-3.9,3.8c-1,1.6-1.6,3.5-1.7,5.6Z"/>
    <path class="st3" d="M274.7,79.2c.5,0,1,0,1.5,0,.5,0,.8,0,1.1,0,.5,0,.9-.3,1.3-.8.4-.5.9-1.3,1.5-2.6.6-1.3,1.4-3.2,2.4-5.6l-12.9-29.4h4.1l10.8,25.5,10-25.5h3.9l-15.3,38c-.3.7-.7,1.4-1.2,2-.5.6-1.2,1.1-2,1.5-.8.4-1.7.6-2.9.6-.3,0-.7,0-1,0-.4,0-.8,0-1.3-.1v-3.5Z"/>
    <path class="st3" d="M312.6,70.7c-2.4,0-4.7-.4-6.7-1.2-2.1-.8-3.9-2-5.4-3.6l1.6-2.7c1.7,1.5,3.3,2.7,5,3.4,1.7.7,3.5,1,5.4,1s4.2-.5,5.6-1.4c1.4-.9,2.2-2.2,2.2-4s-.3-2.1-1-2.7c-.7-.6-1.7-1.1-3-1.5-1.3-.4-2.9-.8-4.7-1.3-2-.6-3.7-1.2-5.1-1.8-1.4-.6-2.4-1.4-3.1-2.4-.7-1-1-2.2-1-3.7s.5-3.5,1.4-4.8c1-1.3,2.3-2.2,4-2.9,1.7-.7,3.6-1,5.6-1s4.3.4,6,1.1c1.7.7,3.2,1.7,4.2,3l-1.9,2.6c-1.1-1.2-2.3-2.1-3.8-2.7-1.5-.6-3.1-.9-4.8-.9s-2.4.2-3.5.5c-1.1.3-2,.8-2.7,1.6-.7.7-1,1.7-1,3s.3,1.9.8,2.4c.5.6,1.3,1.1,2.4,1.5,1.1.4,2.4.8,3.9,1.3,2.2.6,4.2,1.2,5.8,1.8,1.7.6,2.9,1.4,3.9,2.4.9,1,1.4,2.3,1.4,4.1,0,2.7-1,4.9-3.1,6.4-2.1,1.5-4.8,2.3-8.2,2.3Z"/>
    <path class="st3" d="M330.8,70.2V29.9h4v36.7h23.2v3.5h-27.2Z"/>
    <path class="st3" d="M375.2,70.7c-2.1,0-4.1-.4-5.9-1.2s-3.4-1.9-4.7-3.3c-1.3-1.4-2.4-3-3.1-4.9-.7-1.8-1.1-3.8-1.1-5.9s.6-5.2,1.9-7.5c1.3-2.3,3-4.1,5.2-5.5,2.2-1.4,4.8-2.1,7.6-2.1s5.4.7,7.6,2.1c2.2,1.4,3.9,3.2,5.1,5.5s1.9,4.8,1.9,7.5v.9c0,.3,0,.5,0,.6h-25.3c.2,2.1.8,4,1.8,5.6,1,1.6,2.3,2.9,3.9,3.9,1.6,1,3.4,1.4,5.2,1.4s3.7-.5,5.5-1.5c1.7-1,2.9-2.3,3.6-3.9l3.3.9c-.6,1.4-1.5,2.7-2.8,3.8s-2.7,2-4.4,2.6c-1.7.6-3.5.9-5.4.9ZM364.3,54.1h21.8c-.2-2.1-.7-4-1.7-5.6-1-1.6-2.3-2.9-3.9-3.8-1.6-.9-3.4-1.4-5.3-1.4s-3.7.5-5.3,1.4-2.9,2.2-3.9,3.8c-1,1.6-1.6,3.5-1.7,5.6Z"/>
    <path class="st3" d="M407.5,70.7c-2,0-3.9-.4-5.6-1.2-1.7-.8-3.2-2-4.4-3.4-1.2-1.4-2.2-3-2.9-4.8-.7-1.8-1-3.7-1-5.6s.3-4,1-5.9c.7-1.8,1.6-3.5,2.8-4.9,1.2-1.4,2.7-2.6,4.3-3.4,1.7-.8,3.5-1.2,5.6-1.2s4.7.6,6.6,1.9c1.9,1.3,3.4,2.8,4.7,4.7v-6.2h3.5v29.6c0,2.7-.7,5-2,6.9-1.3,1.9-3.1,3.3-5.3,4.2-2.2.9-4.6,1.4-7.2,1.4s-6.1-.6-8.2-1.8c-2.1-1.2-3.8-2.8-5.1-4.9l2.4-1.9c1.2,1.9,2.7,3.2,4.7,4.1,1.9.9,4,1.4,6.2,1.4s3.7-.3,5.3-1c1.6-.7,2.9-1.7,3.9-3.1,1-1.4,1.4-3.1,1.4-5.2v-5.8c-1.1,1.9-2.7,3.3-4.6,4.4-2,1.1-4,1.7-6.2,1.7ZM408.6,67.5c1.2,0,2.3-.2,3.4-.6,1.1-.4,2.1-1,3-1.7.9-.7,1.7-1.5,2.3-2.4.6-.9,1-1.8,1.1-2.7v-9.1c-.6-1.4-1.4-2.7-2.4-3.8-1.1-1.1-2.3-2-3.6-2.6-1.3-.6-2.7-.9-4.2-.9s-3.1.3-4.4,1c-1.3.7-2.4,1.6-3.3,2.8-.9,1.2-1.6,2.4-2.1,3.9-.5,1.4-.7,2.9-.7,4.3s.3,3.1.8,4.5c.6,1.4,1.3,2.7,2.4,3.8,1,1.1,2.2,2,3.5,2.6,1.3.6,2.8.9,4.3.9Z"/>
    <path class="st3" d="M430.7,34.5v-5.7h3.9v5.7h-3.9ZM430.7,70.2v-29.5h3.9v29.5h-3.9Z"/>
    <path class="st3" d="M455.7,70.7c-2.2,0-4.1-.4-5.9-1.2-1.8-.8-3.3-1.9-4.6-3.3-1.3-1.4-2.3-3-3-4.8-.7-1.8-1.1-3.7-1.1-5.8s.4-4.1,1.1-5.9c.7-1.8,1.7-3.4,3.1-4.8,1.3-1.4,2.9-2.5,4.7-3.3,1.8-.8,3.7-1.2,5.9-1.2s4.1.4,5.8,1.2c1.8.8,3.3,1.9,4.6,3.3,1.3,1.4,2.3,3,3.1,4.8.7,1.8,1.1,3.8,1.1,5.9s-.4,4-1.1,5.8c-.7,1.8-1.7,3.4-3,4.8-1.3,1.4-2.9,2.5-4.6,3.3-1.8.8-3.7,1.2-5.9,1.2ZM444.9,55.6c0,2.2.5,4.2,1.4,5.9s2.3,3.2,3.9,4.2c1.6,1,3.4,1.5,5.4,1.5s3.8-.5,5.4-1.6c1.6-1,2.9-2.5,3.9-4.3,1-1.8,1.5-3.8,1.5-6s-.5-4.1-1.5-5.9c-1-1.8-2.3-3.2-3.9-4.3-1.6-1-3.4-1.6-5.4-1.6s-3.8.5-5.4,1.6c-1.6,1.1-2.9,2.5-3.9,4.3s-1.4,3.8-1.4,6Z"/>
    <path class="st3" d="M501.6,70.2h-3.9v-16.4c0-3.5-.5-6-1.5-7.6-1-1.6-2.6-2.4-4.8-2.4s-3,.4-4.5,1.1c-1.5.7-2.8,1.7-3.9,3-1.1,1.3-1.9,2.7-2.4,4.3v18h-3.9v-29.4h3.5v6.7c.8-1.4,1.8-2.7,3.1-3.7,1.3-1.1,2.7-1.9,4.4-2.5,1.6-.6,3.3-.9,5-.9s3,.3,4.1.9c1.1.6,2,1.5,2.7,2.6.7,1.1,1.2,2.4,1.5,4,.3,1.6.5,3.3.5,5.2v17.2Z"/>
  </g>
</svg>